<svg width="227" height="160" viewBox="0 0 227 160" fill="none" xmlns="http://www.w3.org/2000/svg">
<path d="M97.0122 125.829L125.184 154L119.527 159.657L91.2426 131.373C85.7753 125.905 85.7753 117.041 91.2426 111.574L119.527 83.2895L125.184 88.9463L96.8994 117.231C96.7092 117.421 96.5344 117.621 96.375 117.829H212.711C216.024 117.829 218.711 115.142 218.711 111.829V47.8286C218.711 44.5149 216.024 41.8286 212.711 41.8286H156.5V33.8286H212.711C220.443 33.8286 226.711 40.0966 226.711 47.8286V111.829C226.711 119.561 220.443 125.829 212.711 125.829H97.0122Z" fill="white"/>
<path d="M135.468 48.0833C140.936 42.6159 140.936 33.7516 135.468 28.2843L107.184 0L101.527 5.65685L129.699 33.8284L14 33.8285C6.26801 33.8285 0 40.0965 0 47.8285V111.828C0 119.56 6.26801 125.828 14 125.828H70.2107V117.828H14C10.6863 117.828 8 115.142 8 111.828V47.8285C8 44.5147 10.6863 41.8285 14 41.8285L130.336 41.8284C130.176 42.0363 130.002 42.2362 129.811 42.4264L101.527 70.7107L107.184 76.3675L135.468 48.0833Z" fill="white"/>
</svg>
