<svg width="233" height="169" viewBox="0 0 233 169" fill="none" xmlns="http://www.w3.org/2000/svg">
<path d="M102.923 121.329L129.244 95.007L130.305 93.9463L129.244 92.8857L123.588 87.2288L122.527 86.1682L121.466 87.2288L93.1819 115.513C87.1288 121.566 87.1288 131.38 93.1819 137.433L121.466 165.718L122.527 166.778L123.588 165.718L129.244 160.061L130.305 159L129.244 157.94L103.634 132.329H215.711C224.271 132.329 231.211 125.389 231.211 116.829V52.8286C231.211 44.2682 224.271 37.3286 215.711 37.3286H159.5H158V38.8286V46.8286V48.3286H159.5H215.711C218.196 48.3286 220.211 50.3433 220.211 52.8286V116.829C220.211 119.314 218.196 121.329 215.711 121.329H102.923Z" stroke="white" stroke-width="3"/>
<path d="M111.245 3.93932L110.184 2.87866L109.123 3.93932L103.466 9.59617L102.406 10.6569L103.466 11.7175L129.077 37.3284L17 37.3285C8.43959 37.3285 1.5 44.268 1.5 52.8285V116.828C1.5 125.389 8.43959 132.328 17 132.328H73.2107H74.7107V130.828V122.828V121.328H73.2107H17C14.5147 121.328 12.5 119.314 12.5 116.828V52.8285C12.5 50.3432 14.5147 48.3285 17 48.3285L129.788 48.3284L103.466 74.65L102.406 75.7107L103.466 76.7713L109.123 82.4282L110.184 83.4889L111.245 82.4282L139.529 54.1439C145.582 48.0908 145.582 38.2767 139.529 32.2236L111.245 3.93932Z" stroke="white" stroke-width="3"/>
</svg>
